<svg width="20" height="20" viewBox="0 0 20 20" fill="none" xmlns="http://www.w3.org/2000/svg">
<path fill-rule="evenodd" clip-rule="evenodd" d="M9.16667 16.16V6.2525C9.16667 5.6775 8.87083 5.14333 8.38333 4.83917L5.05 2.75583C3.94 2.0625 2.5 2.86 2.5 4.16917V14.0758C2.5 14.6508 2.79583 15.185 3.28333 15.4892L6.61667 17.5725C7.72667 18.2667 9.16667 17.4683 9.16667 16.16Z" stroke="#EC1A1A" stroke-width="1.5" stroke-linecap="round" stroke-linejoin="round"/>
<path d="M12.5 9.16667H17.5" stroke="#EC1A1A" stroke-width="1.5" stroke-linecap="round" stroke-linejoin="round"/>
<path d="M15.8335 10.8333L17.5002 9.16667L15.8335 7.5" stroke="#EC1A1A" stroke-width="1.5" stroke-linecap="round" stroke-linejoin="round"/>
<path d="M9.1665 15.8333H12.4998C13.4207 15.8333 14.1665 15.0875 14.1665 14.1667V13.3333" stroke="#EC1A1A" stroke-width="1.5" stroke-linecap="round" stroke-linejoin="round"/>
<path d="M14.1665 5V4.16667C14.1665 3.24583 13.4207 2.5 12.4998 2.5H4.1665" stroke="#EC1A1A" stroke-width="1.5" stroke-linecap="round" stroke-linejoin="round"/>
</svg>
