<svg width="20" height="20" viewBox="0 0 20 20" fill="none" xmlns="http://www.w3.org/2000/svg">
<path d="M12.5006 7.1864V7.49903C12.5006 8.88032 11.3809 10.0001 9.99958 10.0001V10.0001C8.61829 10.0001 7.49854 8.88032 7.49854 7.49903V7.1864" stroke="#1B1B1B" stroke-width="1.5" stroke-linecap="round" stroke-linejoin="round"/>
<path d="M12.5007 7.1864V7.49903C12.5007 8.88032 13.6205 10.0001 15.0018 10.0001H15.2087C16.4757 10.0001 17.5028 8.97297 17.5028 7.70597V7.70597C17.5028 7.366 17.4104 7.03242 17.2355 6.74089L15.2356 3.40764C14.8966 2.84265 14.286 2.49695 13.6271 2.49695H6.3723C5.71341 2.49695 5.10283 2.84265 4.76383 3.40764L2.76389 6.74088C2.58898 7.03241 2.49658 7.36599 2.49658 7.70596V7.70596C2.49658 8.97296 3.52369 10.0001 4.79069 10.0001H4.99762C6.37891 10.0001 7.49867 8.88032 7.49867 7.49903V7.1864" stroke="#1B1B1B" stroke-width="1.5" stroke-linecap="round" stroke-linejoin="round"/>
<path d="M16.565 9.55363V15.6274C16.565 16.6633 15.7252 17.5031 14.6893 17.5031H5.31035C4.27439 17.5031 3.43457 16.6633 3.43457 15.6274V9.55347" stroke="#1B1B1B" stroke-width="1.5" stroke-linecap="round" stroke-linejoin="round"/>
<path d="M11.4064 14.0382H8.59277" stroke="#1B1B1B" stroke-width="1.5" stroke-linecap="round" stroke-linejoin="round"/>
</svg>
